<?xml version="1.0" encoding="UTF-8" standalone="no"?>
<svg width="1080px" height="212px" viewBox="0 0 1080 212" version="1.1" xmlns="http://www.w3.org/2000/svg" xmlns:xlink="http://www.w3.org/1999/xlink" xmlns:sketch="http://www.bohemiancoding.com/sketch/ns">
    <!-- Generator: Sketch 3.4.2 (15855) - http://www.bohemiancoding.com/sketch -->
    <title>Horizontal Negative</title>
    <desc>Created with Sketch.</desc>
    <defs></defs>
    <g id="Page-1" stroke="none" stroke-width="1" fill="none" fill-rule="evenodd" sketch:type="MSPage">
        <g id="Horizontal-Negative" sketch:type="MSLayerGroup">
            <g id="Group-Copy-6" transform="translate(531.000000, 48.000000)" sketch:type="MSShapeGroup">
                <circle id="Oval-5" fill="#DDDDD9" cx="82" cy="82" r="82"></circle>
                <g id="Group-+-Rectangle-1-+-Rectangle-1-Copy" transform="translate(38.000000, 38.000000)" fill="#F26000">
                    <path d="M36.2422541,65.9609569 L27.1494854,74.7507181 C27.7691608,76.311758 28.1098135,78.0141359 28.1098135,79.7961588 C28.1098135,87.3455134 21.9961024,93.4654744 14.4544577,93.4654744 C6.91281288,93.4654744 0.799101832,87.3455134 0.799101832,79.7961588 C0.799101832,72.2468042 6.91281288,66.1268431 14.4544577,66.1268431 C16.7036101,66.1268431 18.8257597,66.6711632 20.6966152,67.635385 L29.87891,58.7590811 C29.3006056,57.2440715 28.9838194,55.5996724 28.9838194,53.8812082 C28.9838194,48.1622202 32.4923368,43.2635281 37.4722839,41.2243021 L37.4722839,26.8607474 C32.4923368,24.8215213 28.9838194,19.9228292 28.9838194,14.2038412 C28.9838194,6.65448663 35.0975305,0.534525553 42.6391753,0.534525553 C50.18082,0.534525553 56.2945311,6.65448663 56.2945311,14.2038412 C56.2945311,20.2014642 52.4358082,25.2969129 47.0679393,27.1382083 L47.0679393,40.9468412 C52.4358082,42.7881365 56.2945311,47.8835852 56.2945311,53.8812082 C56.2945311,61.4305628 50.18082,67.5505239 42.6391753,67.5505239 C40.3277711,67.5505239 38.1504975,66.9756557 36.2422541,65.9609569 Z M79.5455423,27.8731569 C87.0871871,27.8731569 93.2008982,21.7531958 93.2008982,14.2038412 C93.2008982,6.65448663 87.0871871,0.534525553 79.5455423,0.534525553 C72.0038976,0.534525553 65.8901865,6.65448663 65.8901865,14.2038412 C65.8901865,21.7531958 72.0038976,27.8731569 79.5455423,27.8731569 Z" id="Rectangle-1"></path>
                </g>
            </g>
            <path d="M136.224,140.832 L136.224,0 L91.008,0 L91.008,138.816 C91.008,142.464018 90.8640014,146.25598 90.576,150.192 C90.2879986,154.12802 89.4240072,157.775983 87.984,161.136 C86.5439928,164.496017 84.1920163,167.231989 80.928,169.344 C77.6639837,171.456011 73.0560298,172.512 67.104,172.512 C61.7279731,172.512 57.3600168,171.648009 54,169.92 C50.6399832,168.191991 48.0000096,165.840015 46.08,162.864 C44.1599904,159.887985 42.8160038,156.288021 42.048,152.064 C41.2799962,147.839979 40.896,143.232025 40.896,138.24 L40.896,129.024 L0,129.024 L0,146.88 C0,158.208057 1.9199808,167.85596 5.76,175.824 C9.6000192,183.79204 14.6879683,190.319975 21.024,195.408 C27.3600317,200.496025 34.5599597,204.239988 42.624,206.64 C50.6880403,209.040012 59.0399568,210.24 67.68,210.24 C83.0400768,210.24 95.2319549,207.888024 104.256,203.184 C113.280045,198.479976 120.191976,192.624035 124.992,185.616 C129.792024,178.607965 132.863993,171.07204 134.208,163.008 C135.552007,154.94396 136.224,147.552034 136.224,140.832 L136.224,140.832 Z M149.92,102.528 C150.496003,92.927952 152.895979,84.9600317 157.12,78.624 C161.344021,72.2879683 166.719967,67.2000192 173.248,63.36 C179.776033,59.5199808 187.119959,56.7840082 195.28,55.152 C203.440041,53.5199918 211.647959,52.704 219.904,52.704 C227.392037,52.704 234.975962,53.2319947 242.656,54.288 C250.336038,55.3440053 257.343968,57.4079846 263.68,60.48 C270.016032,63.5520154 275.19998,67.8239726 279.232,73.296 C283.26402,78.7680274 285.28,86.0159549 285.28,95.04 L285.28,172.512 C285.28,179.232034 285.663996,185.663969 286.432,191.808 C287.200004,197.952031 288.54399,202.559985 290.464,205.632 L248.992,205.632 C248.223996,203.327988 247.600002,200.976012 247.12,198.576 C246.639998,196.175988 246.304001,193.728012 246.112,191.232 C239.583967,197.952034 231.904044,202.655987 223.072,205.344 C214.239956,208.032013 205.216046,209.376 196,209.376 C188.895964,209.376 182.272031,208.512009 176.128,206.784 C169.983969,205.055991 164.608023,202.368018 160,198.72 C155.391977,195.071982 151.792013,190.464028 149.2,184.896 C146.607987,179.327972 145.312,172.704038 145.312,165.024 C145.312,156.575958 146.799985,149.616027 149.776,144.144 C152.752015,138.671973 156.591976,134.304016 161.296,131.04 C166.000024,127.775984 171.37597,125.328008 177.424,123.696 C183.47203,122.063992 189.567969,120.768005 195.712,119.808 C201.856031,118.847995 207.90397,118.080003 213.856,117.504 C219.80803,116.927997 225.087977,116.064006 229.696,114.912 C234.304023,113.759994 237.951987,112.080011 240.64,109.872 C243.328013,107.663989 244.576001,104.448021 244.384,100.224 C244.384,95.8079779 243.664007,92.304013 242.224,89.712 C240.783993,87.119987 238.864012,85.1040072 236.464,83.664 C234.063988,82.2239928 231.280016,81.2640024 228.112,80.784 C224.943984,80.3039976 221.536018,80.064 217.888,80.064 C209.82396,80.064 203.488023,81.7919827 198.88,85.248 C194.271977,88.7040173 191.584004,94.4639597 190.816,102.528 L149.92,102.528 Z M244.384,132.768 C242.655991,134.304008 240.496013,135.503996 237.904,136.368 C235.311987,137.232004 232.528015,137.951997 229.552,138.528 C226.575985,139.104003 223.456016,139.583998 220.192,139.968 C216.927984,140.352002 213.664016,140.831997 210.4,141.408 C207.327985,141.984003 204.304015,142.751995 201.328,143.712 C198.351985,144.672005 195.760011,145.967992 193.552,147.6 C191.343989,149.232008 189.568007,151.295988 188.224,153.792 C186.879993,156.288012 186.208,159.455981 186.208,163.296 C186.208,166.944018 186.879993,170.015988 188.224,172.512 C189.568007,175.008012 191.391988,176.975993 193.696,178.416 C196.000012,179.856007 198.687985,180.863997 201.76,181.44 C204.832015,182.016003 207.999984,182.304 211.264,182.304 C219.32804,182.304 225.567978,180.960013 229.984,178.272 C234.400022,175.583987 237.663989,172.368019 239.776,168.624 C241.888011,164.879981 243.183998,161.088019 243.664,157.248 C244.144002,153.407981 244.384,150.336012 244.384,148.032 L244.384,132.768 Z M298.112,56.736 L298.112,205.632 L339.008,205.632 L339.008,119.232 C339.008,111.935964 340.063989,106.032023 342.176,101.52 C344.288011,97.0079774 346.831985,93.552012 349.808,91.152 C352.784015,88.751988 355.855984,87.1200043 359.024,86.256 C362.192016,85.3919957 364.73599,84.96 366.656,84.96 C373.184033,84.96 378.127983,86.063989 381.488,88.272 C384.848017,90.480011 387.247993,93.4079818 388.688,97.056 C390.128007,100.704018 390.943999,104.687978 391.136,109.008 C391.328001,113.328022 391.424,117.695978 391.424,122.112 L391.424,205.632 L432.32,205.632 L432.32,122.688 C432.32,118.079977 432.655997,113.520023 433.328,109.008 C434.000003,104.495977 435.34399,100.464018 437.36,96.912 C439.37601,93.3599822 442.159982,90.480011 445.712,88.272 C449.264018,86.063989 453.919971,84.96 459.68,84.96 C465.440029,84.96 469.999983,85.9199904 473.36,87.84 C476.720017,89.7600096 479.263991,92.3519837 480.992,95.616 C482.720009,98.8800163 483.775998,102.719978 484.16,107.136 C484.544002,111.552022 484.736,116.255975 484.736,121.248 L484.736,205.632 L525.632,205.632 L525.632,105.984 C525.632,96.383952 524.288013,88.1760341 521.6,81.36 C518.911987,74.5439659 515.168024,69.0240211 510.368,64.8 C505.567976,60.5759789 499.808034,57.5040096 493.088,55.584 C486.367966,53.6639904 479.072039,52.704 471.2,52.704 C460.831948,52.704 451.856038,55.199975 444.272,60.192 C436.687962,65.184025 430.688022,70.9439674 426.272,77.472 C422.23998,68.2559539 416.336039,61.8240182 408.56,58.176 C400.783961,54.5279818 392.192047,52.704 382.784,52.704 C372.991951,52.704 364.304038,54.8159789 356.72,59.04 C349.135962,63.2640211 342.656027,69.2159616 337.28,76.896 L336.704,76.896 L336.704,56.736 L298.112,56.736 Z M701.008,56.736 L701.008,205.632 L741.904,205.632 L741.904,119.232 C741.904,111.935964 742.959989,106.032023 745.072,101.52 C747.184011,97.0079774 749.727985,93.552012 752.704,91.152 C755.680015,88.751988 758.751984,87.1200043 761.92,86.256 C765.088016,85.3919957 767.63199,84.96 769.552,84.96 C776.080033,84.96 781.023983,86.063989 784.384,88.272 C787.744017,90.480011 790.143993,93.4079818 791.584,97.056 C793.024007,100.704018 793.839999,104.687978 794.032,109.008 C794.224001,113.328022 794.32,117.695978 794.32,122.112 L794.32,205.632 L835.216,205.632 L835.216,122.688 C835.216,118.079977 835.551997,113.520023 836.224,109.008 C836.896003,104.495977 838.23999,100.464018 840.256,96.912 C842.27201,93.3599822 845.055982,90.480011 848.608,88.272 C852.160018,86.063989 856.815971,84.96 862.576,84.96 C868.336029,84.96 872.895983,85.9199904 876.256,87.84 C879.616017,89.7600096 882.159991,92.3519837 883.888,95.616 C885.616009,98.8800163 886.671998,102.719978 887.056,107.136 C887.440002,111.552022 887.632,116.255975 887.632,121.248 L887.632,205.632 L928.528,205.632 L928.528,105.984 C928.528,96.383952 927.184013,88.1760341 924.496,81.36 C921.807987,74.5439659 918.064024,69.0240211 913.264,64.8 C908.463976,60.5759789 902.704034,57.5040096 895.984,55.584 C889.263966,53.6639904 881.968039,52.704 874.096,52.704 C863.727948,52.704 854.752038,55.199975 847.168,60.192 C839.583962,65.184025 833.584022,70.9439674 829.168,77.472 C825.13598,68.2559539 819.232039,61.8240182 811.456,58.176 C803.679961,54.5279818 795.088047,52.704 785.68,52.704 C775.887951,52.704 767.200038,54.8159789 759.616,59.04 C752.031962,63.2640211 745.552027,69.2159616 740.176,76.896 L739.6,76.896 L739.6,56.736 L701.008,56.736 Z M939.056,102.528 C939.632003,92.927952 942.031979,84.9600317 946.256,78.624 C950.480021,72.2879683 955.855967,67.2000192 962.384,63.36 C968.912033,59.5199808 976.255959,56.7840082 984.416,55.152 C992.576041,53.5199918 1000.78396,52.704 1009.04,52.704 C1016.52804,52.704 1024.11196,53.2319947 1031.792,54.288 C1039.47204,55.3440053 1046.47997,57.4079846 1052.816,60.48 C1059.15203,63.5520154 1064.33598,67.8239726 1068.368,73.296 C1072.40002,78.7680274 1074.416,86.0159549 1074.416,95.04 L1074.416,172.512 C1074.416,179.232034 1074.8,185.663969 1075.568,191.808 C1076.336,197.952031 1077.67999,202.559985 1079.6,205.632 L1038.128,205.632 C1037.36,203.327988 1036.736,200.976012 1036.256,198.576 C1035.776,196.175988 1035.44,193.728012 1035.248,191.232 C1028.71997,197.952034 1021.04004,202.655987 1012.208,205.344 C1003.37596,208.032013 994.352046,209.376 985.136,209.376 C978.031964,209.376 971.408031,208.512009 965.264,206.784 C959.119969,205.055991 953.744023,202.368018 949.136,198.72 C944.527977,195.071982 940.928013,190.464028 938.336,184.896 C935.743987,179.327972 934.448,172.704038 934.448,165.024 C934.448,156.575958 935.935985,149.616027 938.912,144.144 C941.888015,138.671973 945.727976,134.304016 950.432,131.04 C955.136024,127.775984 960.51197,125.328008 966.56,123.696 C972.60803,122.063992 978.703969,120.768005 984.848,119.808 C990.992031,118.847995 997.03997,118.080003 1002.992,117.504 C1008.94403,116.927997 1014.22398,116.064006 1018.832,114.912 C1023.44002,113.759994 1027.08799,112.080011 1029.776,109.872 C1032.46401,107.663989 1033.712,104.448021 1033.52,100.224 C1033.52,95.8079779 1032.80001,92.304013 1031.36,89.712 C1029.91999,87.119987 1028.00001,85.1040072 1025.6,83.664 C1023.19999,82.2239928 1020.41602,81.2640024 1017.248,80.784 C1014.07998,80.3039976 1010.67202,80.064 1007.024,80.064 C998.95996,80.064 992.624023,81.7919827 988.016,85.248 C983.407977,88.7040173 980.720004,94.4639597 979.952,102.528 L939.056,102.528 Z M1027.52,132.768 C1025.79199,134.304008 1023.63201,135.503996 1021.04,136.368 C1018.44799,137.232004 1015.66401,137.951997 1012.688,138.528 C1009.71199,139.104003 1006.59202,139.583998 1003.328,139.968 C1000.06398,140.352002 996.800016,140.831997 993.536,141.408 C990.463985,141.984003 987.440015,142.751995 984.464,143.712 C981.487985,144.672005 978.896011,145.967992 976.688,147.6 C974.479989,149.232008 972.704007,151.295988 971.36,153.792 C970.015993,156.288012 969.344,159.455981 969.344,163.296 C969.344,166.944018 970.015993,170.015988 971.36,172.512 C972.704007,175.008012 974.527988,176.975993 976.832,178.416 C979.136012,179.856007 981.823985,180.863997 984.896,181.44 C987.968015,182.016003 991.135984,182.304 994.4,182.304 C1002.46404,182.304 1008.70398,180.960013 1013.12,178.272 C1017.53602,175.583987 1020.79999,172.368019 1022.912,168.624 C1025.02401,164.879981 1026.32,161.088019 1026.8,157.248 C1027.28,153.407981 1027.52,150.336012 1027.52,148.032 L1027.52,132.768 Z" id="Jamoma-Copy-3" fill="#DDDDD9" sketch:type="MSShapeGroup"></path>
        </g>
    </g>
</svg>